<svg width="105" height="33" viewBox="0 0 105 33" fill="none" xmlns="http://www.w3.org/2000/svg">
<g clip-path="url(#clip0_371_6874)">
<path d="M15.1313 16.2973C18.1547 19.4268 21.1236 22.6119 24.2013 25.6882L33.2713 16.2973L29.7189 10.1446H18.6837C17.4996 12.1946 16.3155 14.246 15.1313 16.2973ZM27.8823 13.327L29.3158 15.8107L24.2013 21.1068L19.0868 15.8107L20.5203 13.327H27.8823Z" fill="url(#paint0_linear_371_6874)"/>
<path d="M19.085 15.8117L24.2 21.1081L29.3148 15.8117L29.3207 15.8211C30.325 17.5606 29.9961 19.7077 28.655 21.0758L28.6508 21.0806L24.2 25.6893C21.1224 22.6118 18.1532 19.428 15.1297 16.2973L18.3114 10.7864C17.4272 12.3563 17.6562 14.3855 18.9919 15.7212C19.0203 15.7496 19.0514 15.7796 19.0852 15.8111L19.085 15.8117ZM18.355 10.7111L18.3549 10.7113L18.3603 10.7018L18.355 10.7111Z" fill="url(#paint1_linear_371_6874)"/>
<path d="M12.162 6.69225C12.3857 6.4154 12.6183 6.1458 12.8615 5.88568C13.8097 4.8697 14.8979 3.99194 16.0826 3.26952C16.2638 3.15647 16.4102 3.06781 16.415 3.06515C17.6054 2.37416 18.8889 1.84628 20.2201 1.49098C22.1118 0.978603 24.1026 0.815804 26.07 1.05193C26.1096 1.05641 26.148 1.06124 26.1867 1.06735C26.7017 1.12977 27.2147 1.2202 27.721 1.33713C32.4513 2.43223 36.5802 5.84243 38.5115 10.3604C40.5047 15.0223 40.0586 20.6481 37.2521 24.9653C33.7032 30.4259 26.5701 33.2899 20.0314 31.4246C19.758 31.3469 19.5512 31.2719 19.2302 31.1753C19.2302 31.1753 18.8676 31.0569 18.5793 30.9749C16.0276 30.2488 13.2929 30.2073 10.7345 30.8242L8.05758 31.5415L6.68169 26.4066C8.6059 25.3597 9.8299 23.0522 9.34199 20.7599C9.31497 20.6642 6.63654 10.6631 6.63654 10.6631C6.12397 8.31975 3.83813 6.53121 1.37445 6.59968L-0.0007556 1.46734C1.30152 1.11703 2.60507 0.766372 3.90871 0.42118C6.77011 -0.345529 9.94953 0.259095 12.4266 1.9209C11.5768 2.6126 10.7874 3.37597 10.0708 4.20085C9.23609 3.7189 8.30629 3.39969 7.32831 3.2952C6.44508 3.20102 5.53992 3.27607 4.685 3.50789L3.87935 3.72377C6.71565 4.54387 9.06752 6.96817 9.73707 9.94346L9.73012 9.91238C11.0495 14.8414 12.4635 20.139 12.4635 20.139C13.0112 22.7928 12.1958 25.6621 10.2976 27.641L10.2761 27.6633C10.3148 27.6543 10.3523 27.6456 10.3914 27.6379C13.6434 26.9299 17.0197 27.1015 20.1474 28.1277C20.1474 28.1277 20.7501 28.3327 21.2782 28.4644C25.5369 29.5362 30.3107 28.1294 33.3103 24.8711C36.6204 21.2756 37.5436 15.6579 35.362 11.1178C33.5124 7.26846 29.5602 4.54813 25.2797 4.16854C25.2375 4.16475 25.1943 4.16259 25.1521 4.15879C20.5898 3.81353 15.9426 6.20504 13.5933 10.1896C13.4764 10.3882 13.3647 10.5897 13.2584 10.7942C12.9405 9.60267 12.568 8.20748 12.162 6.69225Z" fill="url(#paint2_linear_371_6874)"/>
<path d="M25.0989 4.15378C20.5538 3.83049 15.9348 6.21946 13.5934 10.1888C13.4768 10.3863 13.366 10.5872 13.2609 10.7911C14.1494 6.42579 17.4184 2.71213 22.0104 1.48171C23.9248 0.968673 25.856 0.944539 27.6711 1.33253C27.6918 1.332 27.7086 1.33333 27.7216 1.33625C32.4518 2.43181 36.5816 5.84088 38.5125 10.3585C40.5057 15.0213 40.0594 20.6471 37.253 24.9637C35.0397 28.3684 31.4333 30.764 27.4464 31.6329L27.4459 31.6332L27.3876 31.6458L27.4464 31.6329C34.4299 29.3621 38.4939 21.9824 36.5713 14.8069C36.4898 14.5023 36.3979 14.2006 36.2961 13.9022C36.101 12.9387 35.7875 12.003 35.3627 11.1165C33.513 7.26701 29.5609 4.54708 25.2804 4.16677C25.2377 4.16401 25.195 4.161 25.1523 4.15776L25.0989 4.15378Z" fill="url(#paint3_linear_371_6874)"/>
<path d="M79.3179 25.7014H76.1353V10.163H79.3179V25.7014ZM97.292 10.1458C100.099 10.1723 102.812 11.8231 104.118 14.2962C105.238 16.4153 105.297 19.0673 104.266 21.2405C102.812 24.3025 99.2305 26.2094 95.7724 25.5463C92.602 24.9375 89.9699 22.1569 89.5414 18.9533C89.2139 16.5014 90.1369 13.917 91.9508 12.2277C93.3604 10.9163 95.2634 10.1643 97.1929 10.1458H97.292ZM49.3129 11.6508C50.9223 10.4852 52.9698 9.93364 54.963 10.228C57.4082 10.5886 59.6599 12.1442 60.8016 14.3479C61.9285 16.5227 61.9457 19.241 60.8361 21.4211C58.8946 25.2347 53.5521 27.0075 49.6642 24.3939C49.5449 24.3131 49.4282 24.2295 49.3129 24.1434V25.6868H46.1302V4.96788H49.3129V11.6508ZM71.8274 10.1458C72.4797 10.1537 73.1293 10.2478 73.7593 10.4189L73.7885 10.4268L72.9665 13.4967C72.7252 13.4278 72.6335 13.4119 72.4627 13.3841C69.9774 12.9794 67.2724 15.0572 67.2034 17.6949C67.1995 17.846 67.2021 18.0011 67.1941 18.1218V25.6842H64.0118V10.1458H67.1941V11.6455C68.499 10.7028 70.1076 10.1659 71.728 10.1458H71.8274ZM85.671 20.4795C85.671 20.4795 85.6696 21.0522 85.9229 21.486C86.3673 22.2444 87.334 22.6421 88.1891 22.4194L89.0084 25.476C87.6111 25.8499 86.0769 25.6577 84.8609 24.8476C83.4262 23.8915 82.5112 22.2019 82.4886 20.4795V4.96497H85.671V20.4795ZM97.213 13.3284C95.1788 13.3483 93.2532 14.853 92.7797 16.8501C92.4154 18.383 92.907 20.0911 94.0397 21.197C95.3018 22.43 97.3016 22.8478 98.9739 22.1648C100.434 21.5682 101.538 20.1759 101.777 18.6166C102.156 16.1395 100.208 13.523 97.5694 13.339C97.4501 13.331 97.3323 13.3284 97.213 13.3284ZM53.8703 13.331C51.3999 13.3615 49.0835 15.6076 49.346 18.2438C49.5714 20.4981 51.5762 22.5045 53.8968 22.5045C56.2399 22.5058 58.4691 20.4252 58.481 18.0184C58.4929 15.6315 56.4096 13.3522 53.9299 13.331H53.8703ZM79.3169 8.16216H76.1343V4.9822H79.3169V8.16216Z" fill="#00065B"/>
</g>
<defs>
<linearGradient id="paint0_linear_371_6874" x1="18.4717" y1="16.0544" x2="24.9988" y2="13.0104" gradientUnits="userSpaceOnUse">
<stop stop-color="#009E67"/>
<stop offset="1" stop-color="#02EB81"/>
</linearGradient>
<linearGradient id="paint1_linear_371_6874" x1="30.1445" y1="17.6835" x2="23.1294" y2="21.4033" gradientUnits="userSpaceOnUse">
<stop stop-color="#009E67"/>
<stop offset="1" stop-color="#01D684"/>
</linearGradient>
<linearGradient id="paint2_linear_371_6874" x1="21.5798" y1="5.37142" x2="17.9041" y2="21.2575" gradientUnits="userSpaceOnUse">
<stop stop-color="#3F99FE"/>
<stop offset="1" stop-color="#264AFB"/>
</linearGradient>
<linearGradient id="paint3_linear_371_6874" x1="31.0079" y1="30.9594" x2="9.93696" y2="12.3155" gradientUnits="userSpaceOnUse">
<stop stop-color="#3477FD"/>
<stop offset="0.07" stop-color="#3B8BFE"/>
<stop offset="0.14" stop-color="#419DFF"/>
<stop offset="0.37" stop-color="#43A4FF"/>
<stop offset="0.73" stop-color="#44A8FF"/>
<stop offset="1" stop-color="#264AFB"/>
</linearGradient>
<clipPath id="clip0_371_6874">
<rect width="105" height="32.0833" fill="white"/>
</clipPath>
</defs>
</svg>
