<svg width="126" height="39" viewBox="0 0 126 39" fill="none" xmlns="http://www.w3.org/2000/svg">
<g clip-path="url(#clip0_371_6828)">
<path d="M18.1576 19.5568C21.7856 23.3121 25.3483 27.1342 29.0415 30.8259L39.9255 19.5568L35.6627 12.1735H22.4204C20.9995 14.6336 19.5785 17.0952 18.1576 19.5568ZM33.4588 15.9925L35.1789 18.9728L29.0415 25.3282L22.9042 18.9728L24.6243 15.9925H33.4588Z" fill="url(#paint0_linear_371_6828)"/>
<path d="M22.902 18.974L29.04 25.3297L35.1778 18.974L35.1848 18.9853C36.39 21.0726 35.9954 23.6492 34.386 25.291L34.3809 25.2967L29.04 30.8272C25.3469 27.1341 21.7838 23.3136 18.1556 19.5567L21.9736 12.9437C20.9126 14.8276 21.1874 17.2626 22.7902 18.8655C22.8243 18.8995 22.8617 18.9355 22.9023 18.9733L22.902 18.974ZM22.026 12.8533L22.0258 12.8535L22.0323 12.8422L22.026 12.8533Z" fill="url(#paint1_linear_371_6828)"/>
<path d="M14.5944 8.0307C14.8629 7.69848 15.1419 7.37496 15.4339 7.06281C16.5717 5.84364 17.8775 4.79033 19.2992 3.92342C19.5165 3.78776 19.6923 3.68137 19.698 3.67818C21.1265 2.84899 22.6667 2.21553 24.2641 1.78917C26.5342 1.17432 28.9232 0.978964 31.284 1.26232C31.3316 1.26769 31.3776 1.27349 31.424 1.28082C32.0421 1.35572 32.6577 1.46424 33.2652 1.60456C38.9416 2.91868 43.8962 7.01091 46.2138 12.4324C48.6057 18.0268 48.0704 24.7778 44.7026 29.9584C40.4439 36.5111 31.8842 39.9479 24.0377 37.7096C23.7096 37.6163 23.4615 37.5263 23.0762 37.4104C23.0762 37.4104 22.6412 37.2683 22.2952 37.1699C19.2332 36.2986 15.9515 36.2488 12.8815 36.989L9.66913 37.8498L8.01807 31.6879C10.3271 30.4317 11.7959 27.6626 11.2104 24.9119C11.178 24.797 7.96389 12.7957 7.96389 12.7957C7.3488 9.9837 4.60579 7.83746 1.64938 7.91961L-0.000870099 1.76081C1.56185 1.34044 3.12612 0.919646 4.69049 0.505416C8.12417 -0.414635 11.9395 0.310914 14.9119 2.30508C13.8922 3.13512 12.945 4.05117 12.0851 5.04101C11.0833 4.46268 9.96758 4.07963 8.79401 3.95424C7.73413 3.84122 6.64794 3.93129 5.62204 4.20947L4.65526 4.46852C8.05882 5.45265 10.8811 8.36181 11.6845 11.9322L11.6762 11.8949C13.2594 17.8097 14.9562 24.1669 14.9562 24.1669C15.6135 27.3514 14.635 30.7946 12.3571 33.1692L12.3313 33.1959C12.3778 33.1851 12.4228 33.1747 12.4698 33.1654C16.3721 32.3159 20.4237 32.5217 24.1769 33.7532C24.1769 33.7532 24.9001 33.9993 25.5339 34.1573C30.6443 35.4435 36.3729 33.7553 39.9724 29.8453C43.9445 25.5308 45.0524 18.7894 42.4345 13.3413C40.2149 8.72215 35.4723 5.45776 30.3356 5.00225C30.285 4.9977 30.2332 4.9951 30.1826 4.99055C24.7078 4.57624 19.1311 7.44605 16.312 12.2276C16.1717 12.4658 16.0376 12.7077 15.9101 12.953C15.5286 11.5232 15.0817 9.84898 14.5944 8.0307Z" fill="url(#paint2_linear_371_6828)"/>
<path d="M30.1186 4.98451C24.6645 4.59657 19.1218 7.46332 16.312 12.2265C16.1722 12.4636 16.0391 12.7046 15.9131 12.9492C16.9792 7.71092 20.9021 3.25453 26.4125 1.77803C28.7097 1.16238 31.0272 1.13342 33.2053 1.59902C33.2301 1.59838 33.2503 1.59997 33.2659 1.60347C38.9421 2.91814 43.8978 7.00903 46.215 12.4302C48.6068 18.0256 48.0713 24.7765 44.7036 29.9564C42.0476 34.0421 37.7199 36.9168 32.9357 37.9595L32.9351 37.9598L32.8651 37.9749L32.9357 37.9595C41.3159 35.2345 46.1927 26.3789 43.8856 17.7683C43.7877 17.4028 43.6775 17.0407 43.5552 16.6826C43.3212 15.5264 42.945 14.4035 42.4352 13.3397C40.2156 8.72039 35.4731 5.45647 30.3364 5.0001C30.2852 4.99679 30.234 4.99318 30.1827 4.98928L30.1186 4.98451Z" fill="url(#paint3_linear_371_6828)"/>
<path d="M95.1815 30.8417H91.3624V12.1956H95.1815V30.8417ZM116.75 12.1749C120.119 12.2067 123.375 14.1877 124.942 17.1554C126.285 19.6983 126.357 22.8808 125.119 25.4886C123.375 29.1629 119.077 31.4513 114.927 30.6555C111.122 29.925 107.964 26.5882 107.45 22.7439C107.057 19.8017 108.164 16.7004 110.341 14.6733C112.032 13.0995 114.316 12.1972 116.631 12.1749H116.75ZM59.1755 13.9809C61.1068 12.5822 63.5638 11.9204 65.9556 12.2735C68.8899 12.7063 71.5919 14.573 72.962 17.2174C74.3142 19.8272 74.3349 23.0892 73.0033 25.7053C70.6736 30.2817 64.2625 32.409 59.597 29.2727C59.4539 29.1757 59.3139 29.0754 59.1755 28.972V30.8242H55.3563V5.96145H59.1755V13.9809ZM86.1929 12.1749C86.9756 12.1844 87.7552 12.2974 88.5112 12.5026L88.5462 12.5122L87.5598 16.1961C87.2703 16.1134 87.1602 16.0943 86.9553 16.0609C83.973 15.5753 80.7269 18.0686 80.6441 21.2339C80.6394 21.4152 80.6425 21.6014 80.633 21.7461V30.821H76.8142V12.1749H80.633V13.9745C82.1988 12.8434 84.1292 12.1991 86.0736 12.1749H86.1929ZM102.805 24.5754C102.805 24.5754 102.804 25.2627 103.107 25.7832C103.641 26.6932 104.801 27.1705 105.827 26.9032L106.81 30.5712C105.133 31.0199 103.292 30.7892 101.833 29.8171C100.111 28.6698 99.0134 26.6423 98.9864 24.5754V5.95795H102.805V24.5754ZM116.656 15.994C114.215 16.0179 111.904 17.8236 111.336 20.2201C110.898 22.0595 111.488 24.1093 112.848 25.4364C114.362 26.9159 116.762 27.4174 118.769 26.5978C120.521 25.8819 121.846 24.2111 122.132 22.3399C122.588 19.3674 120.25 16.2276 117.083 16.0068C116.94 15.9972 116.799 15.994 116.656 15.994ZM64.6444 15.9972C61.6799 16.0338 58.9002 18.7291 59.2152 21.8925C59.4857 24.5977 61.8915 27.0054 64.6762 27.0054C67.488 27.0069 70.1629 24.5102 70.1772 21.622C70.1916 18.7578 67.6916 16.0227 64.716 15.9972H64.6444ZM95.1803 9.79458H91.3611V5.97863H95.1803V9.79458Z" fill="#00065B"/>
</g>
<defs>
<linearGradient id="paint0_linear_371_6828" x1="22.1661" y1="19.2653" x2="29.9986" y2="15.6125" gradientUnits="userSpaceOnUse">
<stop stop-color="#009E67"/>
<stop offset="1" stop-color="#02EB81"/>
</linearGradient>
<linearGradient id="paint1_linear_371_6828" x1="36.1734" y1="21.2202" x2="27.7553" y2="25.6839" gradientUnits="userSpaceOnUse">
<stop stop-color="#009E67"/>
<stop offset="1" stop-color="#01D684"/>
</linearGradient>
<linearGradient id="paint2_linear_371_6828" x1="25.8959" y1="6.4457" x2="21.4849" y2="25.5091" gradientUnits="userSpaceOnUse">
<stop stop-color="#3F99FE"/>
<stop offset="1" stop-color="#264AFB"/>
</linearGradient>
<linearGradient id="paint3_linear_371_6828" x1="37.2094" y1="37.1513" x2="11.9243" y2="14.7785" gradientUnits="userSpaceOnUse">
<stop stop-color="#3477FD"/>
<stop offset="0.07" stop-color="#3B8BFE"/>
<stop offset="0.14" stop-color="#419DFF"/>
<stop offset="0.37" stop-color="#43A4FF"/>
<stop offset="0.73" stop-color="#44A8FF"/>
<stop offset="1" stop-color="#264AFB"/>
</linearGradient>
<clipPath id="clip0_371_6828">
<rect width="126" height="38.5" fill="white"/>
</clipPath>
</defs>
</svg>
